HIERARCHY
ROOT hip
{
  OFFSET 0 0 0
  CHANNELS 6 Xposition Yposition Zposition Zrotation Yrotation Xrotation
  JOINT abdomen
  {
    OFFSET 0 20.6881 -0.73152
    CHANNELS 3 Zrotation Xrotation Yrotation
    JOINT chest
    {
      OFFSET 0 11.7043 -0.48768
      CHANNELS 3 Zrotation Xrotation Yrotation
      JOINT neck
      {
        OFFSET 0 22.1894 -2.19456
        CHANNELS 3 Zrotation Xrotation Yrotation
        JOINT head
        {
          OFFSET -0.24384 7.07133 1.2192
          CHANNELS 3 Zrotation Xrotation Yrotation
          JOINT leftEye
          {
            OFFSET 4.14528 8.04674 8.04672
            CHANNELS 3 Zrotation Xrotation Yrotation
            End Site
            {
              OFFSET 1 0 0
            }
          }
          JOINT rightEye
          {
            OFFSET -3.6576 8.04674 8.04672
            CHANNELS 3 Zrotation Xrotation Yrotation
            End Site
            {
              OFFSET 1 0 0
            }
          }
        }
      }
      JOINT rCollar
      {
        OFFSET -2.68224 19.2634 -4.8768
        CHANNELS 3 Zrotation Xrotation Yrotation
        JOINT rShldr
        {
          OFFSET -8.77824 -1.95073 1.46304
          CHANNELS 3 Zrotation Xrotation Yrotation
          JOINT rForeArm
          {
            OFFSET -28.1742 -1.7115 0.48768
            CHANNELS 3 Zrotation Xrotation Yrotation
            JOINT rHand
            {
              OFFSET -22.5879 0.773209 7.07136
              CHANNELS 3 Zrotation Xrotation Yrotation
              JOINT rThumb1
              {
                OFFSET -1.2192 -0.487915 3.41376
                CHANNELS 3 Zrotation Xrotation Yrotation
                JOINT rThumb2
                {
                  OFFSET -3.37035 -0.52449 3.41376
                  CHANNELS 3 Zrotation Xrotation Yrotation
                  End Site
                  {
                    OFFSET -1.78271 -1.18214 1.43049
                  }
                }
              }
              JOINT rIndex1
              {
                OFFSET -7.75947 0.938293 5.60832
                CHANNELS 3 Zrotation Xrotation Yrotation
                JOINT rIndex2
                {
                  OFFSET -2.54057 -0.884171 1.56538
                  CHANNELS 3 Zrotation Xrotation Yrotation
                  End Site
                  {
                    OFFSET -1.62519 -0.234802 1.16502
                  }
                }
              }
              JOINT rMid1
              {
                OFFSET -8.24714 1.18213 3.41376
                CHANNELS 3 Zrotation Xrotation Yrotation
                JOINT rMid2
                {
                  OFFSET -3.10165 -0.590103 1.0647
                  CHANNELS 3 Zrotation Xrotation Yrotation
                  End Site
                  {
                    OFFSET -2.48547 -0.328903 0.83742
                  }
                }
              }
              JOINT rRing1
              {
                OFFSET -8.82822 0.546677 1.51678
                CHANNELS 3 Zrotation Xrotation Yrotation
                JOINT rRing2
                {
                  OFFSET -2.60934 -0.819778 -0.0198488
                  CHANNELS 3 Zrotation Xrotation Yrotation
                  End Site
                  {
                    OFFSET -2.33842 -0.294052 0.168128
                  }
                }
              }
              JOINT rPinky1
              {
                OFFSET -8.27202 -0.0477905 -0.4584
                CHANNELS 3 Zrotation Xrotation Yrotation
                JOINT rPinky2
                {
                  OFFSET -1.82734 -0.647385 -0.700984
                  CHANNELS 3 Zrotation Xrotation Yrotation
                  End Site
                  {
                    OFFSET -1.69225 -0.51767 -0.607171
                  }
                }
              }
            }
          }
        }
      }
      JOINT lCollar
      {
        OFFSET 2.68224 19.2634 -4.8768
        CHANNELS 3 Zrotation Xrotation Yrotation
        JOINT lShldr
        {
          OFFSET 8.77824 -1.95073 1.46304
          CHANNELS 3 Zrotation Xrotation Yrotation
          JOINT lForeArm
          {
            OFFSET 28.1742 -1.7115 0.48768
            CHANNELS 3 Zrotation Xrotation Yrotation
            JOINT lHand
            {
              OFFSET 22.5879 0.773209 7.07136
              CHANNELS 3 Zrotation Xrotation Yrotation
              JOINT lThumb1
              {
                OFFSET 1.2192 -0.487915 3.41376
                CHANNELS 3 Zrotation Xrotation Yrotation
                JOINT lThumb2
                {
                  OFFSET 3.37035 -0.52449 3.41376
                  CHANNELS 3 Zrotation Xrotation Yrotation
                  End Site
                  {
                    OFFSET 1.78271 -1.18214 1.43049
                  }
                }
              }
              JOINT lIndex1
              {
                OFFSET 7.75947 0.938293 5.60832
                CHANNELS 3 Zrotation Xrotation Yrotation
                JOINT lIndex2
                {
                  OFFSET 2.54057 -0.884171 1.56538
                  CHANNELS 3 Zrotation Xrotation Yrotation
                  End Site
                  {
                    OFFSET 1.62519 -0.234802 1.16502
                  }
                }
              }
              JOINT lMid1
              {
                OFFSET 8.24714 1.18213 3.41376
                CHANNELS 3 Zrotation Xrotation Yrotation
                JOINT lMid2
                {
                  OFFSET 3.10165 -0.590103 1.0647
                  CHANNELS 3 Zrotation Xrotation Yrotation
                  End Site
                  {
                    OFFSET 2.48547 -0.328903 0.83742
                  }
                }
              }
              JOINT lRing1
              {
                OFFSET 8.82822 0.546677 1.51678
                CHANNELS 3 Zrotation Xrotation Yrotation
                JOINT lRing2
                {
                  OFFSET 2.60934 -0.819778 -0.0198488
                  CHANNELS 3 Zrotation Xrotation Yrotation
                  End Site
                  {
                    OFFSET 2.33842 -0.294052 0.168128
                  }
                }
              }
              JOINT lPinky1
              {
                OFFSET 8.27202 -0.0477905 -0.4584
                CHANNELS 3 Zrotation Xrotation Yrotation
                JOINT lPinky2
                {
                  OFFSET 1.82734 -0.647385 -0.700984
                  CHANNELS 3 Zrotation Xrotation Yrotation
                  End Site
                  {
                    OFFSET 1.69225 -0.51767 -0.607171
                  }
                }
              }
            }
          }
        }
      }
    }
  }
  JOINT rButtock
  {
    OFFSET -8.77824 4.35084 1.2192
    CHANNELS 3 Zrotation Xrotation Yrotation
    JOINT rThigh
    {
      OFFSET 0 -1.70687 -2.19456
      CHANNELS 3 Zrotation Xrotation Yrotation
      JOINT rShin
      {
        OFFSET 0 -36.8199 0.73152
        CHANNELS 3 Zrotation Xrotation Yrotation
        JOINT rFoot
        {
          OFFSET 0.73152 -45.1104 -5.12064
          CHANNELS 3 Zrotation Xrotation Yrotation
          End Site
          {
            OFFSET -1.1221 -3.69964 12.103
          }
        }
      }
    }
  }
  JOINT lButtock
  {
    OFFSET 8.77824 4.35084 1.2192
    CHANNELS 3 Zrotation Xrotation Yrotation
    JOINT lThigh
    {
      OFFSET 0 -1.70687 -2.19456
      CHANNELS 3 Zrotation Xrotation Yrotation
      JOINT lShin
      {
        OFFSET 0 -36.8199 0.73152
        CHANNELS 3 Zrotation Xrotation Yrotation
        JOINT lFoot
        {
          OFFSET -0.73152 -45.1104 -5.12064
          CHANNELS 3 Zrotation Xrotation Yrotation
          End Site
          {
            OFFSET 1.1221 -3.69964 12.103
          }
        }
      }
    }
  }
}
MOTION
Frames:	5
Frame Time:	0.00833333
-31.4801 81.6904 20.2118 -9.2149 31.4398 2.9701 -20.7482 0.0952052 -23.3166 4.18075 -0.52333 -6.47911 -0.764999 9.7056 22.6031 -14.9492 -9.87631 43.0107 -0.0 0.0 0.0 -0.0 0.0 0.0 6.38638e-14 3.90551e-13 -6.67317e-13 38.358 -30.3509 42.3822 -26.9289 -44.2029 91.8485 -0.00482793 -1.3866 -0.195105 2.3693e-09 2.69466e-09 1.1641e-09 4.09058e-09 4.66527e-09 2.01087e-09 2.3693e-09 2.69466e-09 1.16409e-09 7.73091 5.47488 0.417314 2.3693e-09 2.69466e-09 1.1641e-09 2.90554 0.965183 0.102902 2.36931e-09 2.69466e-09 1.1641e-09 10.2786 0.731801 0.0259123 2.3693e-09 2.69466e-09 1.16411e-09 2.22167 -0.733487 -0.20892 6.37227e-14 3.90572e-13 -6.67559e-13 -19.0143 -12.3562 -139.108 18.2452 -10.9524 -34.5737 2.29509e-05 0.0158567 -0.00222855 1.61603e-09 -4.62918e-09 1.89605e-09 2.79047e-09 -8.01085e-09 3.27905e-09 1.61603e-09 -4.62918e-09 1.89606e-09 -7.73091 5.47488 -0.417314 1.61603e-09 -4.62918e-09 1.89605e-09 -2.90554 0.965183 -0.102902 1.61603e-09 -4.62918e-09 1.89605e-09 -10.2786 0.731801 -0.0259123 1.61603e-09 -4.62918e-09 1.89604e-09 -2.22167 -0.733487 0.20892 -2.03217e-16 0.0 -3.88251e-19 16.5797 -30.9378 23.3296 -0.166975 29.8551 0.682694 0.727255 4.44949 28.2447 2.03217e-16 0.0 3.88251e-19 28.9819 -3.88487 20.6274 0.217446 39.046 -1.09903 -2.2006 16.2928 10.0289
-31.4538 81.6529 20.0467 -9.2572 31.7408 2.9796 -20.6419 0.24831 -23.3193 4.20667 -0.540963 -6.48686 -0.766002 9.77171 22.5898 -15.0255 -9.90292 42.9691 -0.0 0.0 0.0 -0.0 0.0 0.0 1.02108e-14 2.28689e-13 -6.37849e-13 38.8075 -30.1683 42.7059 -26.9825 -44.0619 91.5678 -0.00712913 -1.93713 -0.272565 1.69164e-09 2.12984e-09 1.03693e-09 2.91858e-09 3.68788e-09 1.79088e-09 1.69164e-09 2.12984e-09 1.0369e-09 7.73091 5.47488 0.417314 1.69164e-09 2.12984e-09 1.03693e-09 2.90554 0.965183 0.102902 1.69165e-09 2.12983e-09 1.03693e-09 10.2786 0.731801 0.0259123 1.69164e-09 2.12984e-09 1.03694e-09 2.22167 -0.733487 -0.20892 1.00554e-14 2.28751e-13 -6.38061e-13 -18.9901 -12.1023 -138.945 18.1791 -10.8803 -34.4243 1.46397e-05 0.0288539 -0.00405516 1.60592e-09 -3.07002e-09 7.97874e-10 2.77388e-09 -5.3105e-09 1.37605e-09 1.60591e-09 -3.07003e-09 7.97883e-10 -7.73091 5.47488 -0.417314 1.60592e-09 -3.07003e-09 7.97869e-10 -2.90554 0.965183 -0.102902 1.60591e-09 -3.07003e-09 7.97868e-10 -10.2786 0.731801 -0.0259123 1.60592e-09 -3.07003e-09 7.97868e-10 -2.22167 -0.733487 0.20892 -2.03217e-16 0.0 -3.88251e-19 16.3833 -30.9882 23.0514 -0.162893 29.5826 0.685106 0.502745 4.83894 28.166 2.03217e-16 0.0 3.88251e-19 28.9685 -4.09491 20.688 0.218679 39.1204 -1.10335 -2.0512 15.7584 9.7867
-31.4245 81.6516 19.8775 -9.3196 32.0621 2.9946 -20.4931 0.407035 -23.3131 4.2401 -0.548655 -6.49324 -0.780773 9.80871 22.5769 -15.0727 -9.91456 42.9357 -0.0 0.0 0.0 -0.0 0.0 0.0 -5.78625e-14 1.01736e-13 -5.36619e-13 39.2047 -29.9456 42.9928 -27.0371 -43.9155 91.2766 -0.00920559 -2.73837 -0.385149 1.04168e-09 1.60195e-09 6.06907e-10 1.79672e-09 2.77395e-09 1.04716e-09 1.04168e-09 1.60195e-09 6.06869e-10 7.73091 5.47488 0.417314 1.04168e-09 1.60194e-09 6.06898e-10 2.90554 0.965183 0.102902 1.04169e-09 1.60194e-09 6.06904e-10 10.2786 0.731801 0.0259123 1.04168e-09 1.60194e-09 6.0691e-10 2.22167 -0.733487 -0.20892 -5.80333e-14 1.01818e-13 -5.36818e-13 -18.9549 -11.8758 -138.797 18.0995 -10.7941 -34.2439 2.50377e-07 0.0142599 -0.00200409 1.67382e-09 -1.62834e-09 -6.42631e-11 2.89203e-09 -2.81385e-09 -1.17815e-10 1.67382e-09 -1.62834e-09 -6.42536e-11 -7.73091 5.47488 -0.417314 1.67383e-09 -1.62835e-09 -6.42695e-11 -2.90554 0.965183 -0.102902 1.67382e-09 -1.62835e-09 -6.42687e-11 -10.2786 0.731801 -0.0259123 1.67383e-09 -1.62835e-09 -6.42663e-11 -2.22167 -0.733487 0.20892 -2.03217e-16 0.0 -3.88251e-19 16.2393 -31.069 22.8374 -0.159981 29.3645 0.68466 0.37176 5.0586 28.026 2.03217e-16 0.0 3.88251e-19 28.9795 -4.32247 20.7798 0.219286 39.1746 -1.10792 -1.90428 15.1709 9.57109
-31.4079 81.6638 19.6986 -9.4332 32.3864 3.0055 -20.2898 0.558839 -23.2944 4.27961 -0.544791 -6.49691 -0.811595 9.82787 22.5702 -15.0835 -9.92014 42.9198 -0.0 0.0 0.0 -0.0 0.0 0.0 -1.63702e-13 1.54019e-14 -3.00416e-13 39.5146 -29.6534 43.2178 -27.0924 -43.7635 90.976 -0.0148955 -3.96692 -0.558001 3.37534e-10 1.06657e-09 -3.65292e-10 5.84921e-10 1.84627e-09 -6.34222e-10 3.3753e-10 1.06657e-09 -3.65327e-10 7.73091 5.47488 0.417314 3.37533e-10 1.06656e-09 -3.653e-10 2.90554 0.965183 0.102902 3.37543e-10 1.06656e-09 -3.65293e-10 10.2786 0.731801 0.0259123 3.37532e-10 1.06656e-09 -3.65285e-10 2.22167 -0.733487 -0.20892 -1.639e-13 1.54706e-14 -3.00632e-13 -18.8984 -11.6936 -138.667 17.9993 -10.6864 -34.0177 2.43192e-05 -0.0238236 0.00334849 1.84778e-09 -1.09757e-10 -6.77721e-10 3.19333e-09 -1.84522e-10 -1.1806e-09 1.84777e-09 -1.0976e-10 -6.77711e-10 -7.73091 5.47488 -0.417314 1.84778e-09 -1.09763e-10 -6.77728e-10 -2.90554 0.965183 -0.102902 1.84777e-09 -1.09765e-10 -6.77726e-10 -10.2786 0.731801 -0.0259123 1.84778e-09 -1.09764e-10 -6.77725e-10 -2.22167 -0.733487 0.20892 -2.03217e-16 0.0 -3.88251e-19 16.1854 -31.189 22.7412 -0.158688 29.2177 0.680257 0.368646 5.04369 27.8012 2.03217e-16 0.0 3.88251e-19 29.0325 -4.57088 20.9138 0.219172 39.2105 -1.11334 -1.75526 14.5223 9.3658
-31.4267 81.6798 19.5243 -9.6453 32.7309 2.9678 -20.0471 0.709051 -23.2703 4.32369 -0.533026 -6.4997 -0.859911 9.83671 22.5686 -15.0653 -9.92654 42.918 -0.0 0.0 0.0 -0.0 0.0 0.0 -3.04947e-13 -5.96037e-14 4.74194e-14 39.7818 -29.3073 43.4149 -27.1479 -43.6062 90.6675 -0.0305672 -5.49978 -0.774684 -4.74764e-10 4.36342e-10 -1.82785e-09 -8.11228e-10 7.53769e-10 -3.16367e-09 -4.74764e-10 4.36345e-10 -1.82788e-09 7.73091 5.47488 0.417314 -4.74765e-10 4.36343e-10 -1.82786e-09 2.90554 0.965183 0.102902 -4.74757e-10 4.36343e-10 -1.82785e-09 10.2786 0.731801 0.0259123 -4.74768e-10 4.36344e-10 -1.82784e-09 2.22167 -0.733487 -0.20892 -3.05177e-13 -5.9569e-14 4.71679e-14 -18.8244 -11.5362 -138.541 17.8847 -10.5637 -33.7608 7.81553e-05 -0.0724131 0.0101778 2.1233e-09 1.66182e-09 -1.21853e-09 3.67025e-09 2.88255e-09 -2.11742e-09 2.1233e-09 1.66181e-09 -1.21852e-09 -7.73091 5.47488 -0.417314 2.1233e-09 1.66181e-09 -1.21854e-09 -2.90554 0.965183 -0.102902 2.1233e-09 1.66181e-09 -1.21854e-09 -10.2786 0.731801 -0.0259123 2.12331e-09 1.66181e-09 -1.21854e-09 -2.22167 -0.733487 0.20892 -2.03217e-16 0.0 -3.88251e-19 16.1822 -31.3387 22.7033 -0.158368 29.1121 0.673442 0.438942 4.88975 27.5275 2.03217e-16 0.0 3.88251e-19 29.1126 -4.8409 21.08 0.218717 39.24 -1.11936 -1.60407 13.8074 9.17735
